FFmpeg version SVN-r25716, Copyright (c) 2000-2010 the FFmpeg developers  built on Nov 10 2010 12:23:18 with gcc 4.1.2 20080704 (Red Hat 4.1.2-48)  configuration: --enable-libmp3lame --enable-shared --disable-mmx --arch=x86_64  libavutil     50.33. 0 / 50.33. 0  libavcore      0.12. 1 /  0.12. 1  libavcodec    52.94. 4 / 52.94. 4  libavformat   52.84. 0 / 52.84. 0  libavdevice   52. 2. 2 / 52. 2. 2  libavfilter    1.59. 0 /  1.59. 0  libswscale     0.12. 0 /  0.12. 0Seems stream 0 codec frame rate differs from container frame rate: 1200.00 (1200/1) -> 12.00 (12/1)Input #0, mov,mp4,m4a,3gp,3g2,mj2, from '/RAID10/data/converted_video_files/8081.mov':  Metadata:    major_brand     : qt      minor_version   : 537199360    compatible_brands: qt    Duration: 00:00:29.83, start: 0.000000, bitrate: 6270 kb/s    Stream #0.0(eng): Video: h264, yuv420p, 640x480, 6269 kb/s, 12 fps, 12 tbr, 600 tbn, 1200 tbc[buffer @ 0x6ee46b0] w:640 h:480 pixfmt:yuv420pOutput #0, flv, to '/RAID10/data/converted_video_files/8081.flv':  Metadata:    encoder         : Lavf52.84.0    Stream #0.0(eng): Video: flv, yuv420p, 640x480, q=2-31, 600 kb/s, 1k tbn, 24 tbcStream mapping:  Stream #0.0 -> #0.0Press [q] to stop encodingframe=   20 fps=  0 q=31.0 size=     584kB time=1.62 bitrate=2943.5kbits/s    frame=   42 fps= 41 q=31.0 size=     776kB time=3.46 bitrate=1837.0kbits/s    frame=   64 fps= 42 q=31.0 size=     957kB time=5.29 bitrate=1482.1kbits/s    frame=   86 fps= 42 q=31.0 size=    1154kB time=7.12 bitrate=1327.1kbits/s    frame=  108 fps= 42 q=24.8 size=    1352kB time=8.96 bitrate=1236.0kbits/s    frame=  130 fps= 42 q=31.0 size=    1552kB time=10.79 bitrate=1178.2kbits/s    frame=  153 fps= 43 q=31.0 size=    1721kB time=12.71 bitrate=1109.5kbits/s    frame=  176 fps= 43 q=31.0 size=    1889kB time=14.62 bitrate=1058.4kbits/s    frame=  198 fps= 43 q=31.0 size=    2064kB time=16.46 bitrate=1027.2kbits/s    frame=  221 fps= 43 q=31.0 size=    2234kB time=18.37 bitrate= 995.8kbits/s    frame=  243 fps= 43 q=31.0 size=    2404kB time=20.21 bitrate= 974.4kbits/s    frame=  266 fps= 43 q=31.0 size=    2584kB time=22.12 bitrate= 957.0kbits/s    frame=  289 fps= 43 q=31.0 size=    2771kB time=24.04 bitrate= 944.0kbits/s    frame=  311 fps= 43 q=31.0 size=    2948kB time=25.87 bitrate= 933.4kbits/s    frame=  333 fps= 43 q=31.0 size=    3126kB time=27.71 bitrate= 924.2kbits/s    frame=  356 fps= 43 q=31.0 size=    3317kB time=29.62 bitrate= 917.2kbits/s    frame=  358 fps= 43 q=31.0 Lsize=    3332kB time=29.79 bitrate= 916.2kbits/s    video:3326kB audio:0kB global headers:0kB muxing overhead 0.174346%